<svg width="78" height="17" viewBox="0 0 78 17" fill="none" xmlns="http://www.w3.org/2000/svg">
<path d="M16.8867 3.4C16.8576 3.27455 16.8232 3.15132 16.7836 3.0303C16.491 2.13418 15.9182 1.36469 15.1687 0.82551C15.1687 0.82551 15.1687 0.825379 15.1684 0.825379C14.7734 0.541004 14.3292 0.32072 13.8511 0.17964C13.851 0.17964 13.851 0.17951 13.8509 0.17951C13.4555 0.062659 13.0368 0 12.6035 0C11.4464 0 10.3935 0.44708 9.60853 1.17789L9.60644 1.17984L3.98624 6.8C3.98624 6.8 1.45954 9.33085 1.40157 9.38478L1.39948 9.38674L1.17985 9.60637L1.17789 9.60845C1.00724 9.79174 0.852091 9.98962 0.714657 10.2C0.262753 10.8908 0 11.7165 0 12.6034C0 12.9462 0.039211 13.2798 0.113464 13.6C0.128576 13.6654 0.14525 13.7303 0.163227 13.7945C0.163227 13.7946 0.163227 13.7946 0.163227 13.7948C0.309129 14.3145 0.548303 14.7953 0.861601 15.2181C1.39883 15.9434 2.154 16.4974 3.03019 16.7835C3.46021 16.9241 3.91954 17 4.39646 17H12.6034C14.6889 17 16.4352 15.5482 16.8865 13.6C16.9608 13.2798 17 12.9462 17 12.6034V4.39655C17 4.05382 16.9608 3.7202 16.8865 3.4H16.8867ZM12.5586 10.2C12.4115 11.5332 11.2814 12.57 9.90932 12.57C9.50731 12.57 9.12601 12.481 8.78431 12.3217C8.59243 12.2322 8.41292 12.1205 8.2493 11.99C8.17061 11.9274 8.09558 11.8603 8.02458 11.7893C7.60759 11.3724 7.32829 10.818 7.26003 10.2C7.24935 10.1031 7.24388 10.0045 7.24388 9.90455C7.24388 9.70055 7.26681 9.50189 7.31032 9.31092C7.53607 8.31802 8.31626 7.53575 9.30826 7.30713C9.50144 7.26271 9.70258 7.23913 9.90932 7.23913C10.6453 7.23913 11.3117 7.53745 11.7941 8.01983C11.8662 8.092 11.9342 8.16834 11.9977 8.24832H11.9978C12.1282 8.41246 12.2396 8.59236 12.3288 8.78464C12.4867 9.12516 12.5748 9.5045 12.5748 9.90455C12.5748 10.0045 12.5693 10.1031 12.5586 10.2Z" fill="url(#paint0_linear_24_579)"/>
<path d="M20.2465 14V4.9H24.3805C25.3685 4.9 26.2395 5.09067 26.9935 5.472C27.7475 5.84467 28.3368 6.369 28.7615 7.045C29.1861 7.721 29.3985 8.52267 29.3985 9.45C29.3985 10.3687 29.1861 11.1703 28.7615 11.855C28.3368 12.531 27.7475 13.0597 26.9935 13.441C26.2395 13.8137 25.3685 14 24.3805 14H20.2465ZM22.3525 12.271H24.2765C24.8831 12.271 25.4075 12.1583 25.8495 11.933C26.3001 11.699 26.6468 11.3697 26.8895 10.945C27.1408 10.5203 27.2665 10.022 27.2665 9.45C27.2665 8.86933 27.1408 8.371 26.8895 7.955C26.6468 7.53033 26.3001 7.20533 25.8495 6.98C25.4075 6.746 24.8831 6.629 24.2765 6.629H22.3525V12.271ZM32.9237 8.566H37.3047V10.204H32.9237V8.566ZM33.0797 12.31H38.0327V14H30.9867V4.9H37.8637V6.59H33.0797V12.31ZM42.3114 14L38.3854 4.9H40.6604L44.0924 12.96H42.7534L46.2374 4.9H48.3304L44.3914 14H42.3114ZM50.9752 11.92L50.8582 9.489L55.2132 4.9H57.5532L53.6272 9.125L52.4572 10.373L50.9752 11.92ZM49.0902 14V4.9H51.1832V14H49.0902ZM55.3172 14L52.0802 10.035L53.4582 8.54L57.7742 14H55.3172ZM62.8032 14.156C62.0839 14.156 61.4165 14.039 60.8012 13.805C60.1945 13.571 59.6659 13.2417 59.2152 12.817C58.7732 12.3923 58.4265 11.894 58.1752 11.322C57.9325 10.75 57.8112 10.126 57.8112 9.45C57.8112 8.774 57.9325 8.15 58.1752 7.578C58.4265 7.006 58.7775 6.50767 59.2282 6.083C59.6789 5.65833 60.2075 5.329 60.8142 5.095C61.4209 4.861 62.0795 4.744 62.7902 4.744C63.5095 4.744 64.1682 4.861 64.7662 5.095C65.3729 5.329 65.8972 5.65833 66.3392 6.083C66.7899 6.50767 67.1409 7.006 67.3922 7.578C67.6435 8.14133 67.7692 8.76533 67.7692 9.45C67.7692 10.126 67.6435 10.7543 67.3922 11.335C67.1409 11.907 66.7899 12.4053 66.3392 12.83C65.8972 13.246 65.3729 13.571 64.7662 13.805C64.1682 14.039 63.5139 14.156 62.8032 14.156ZM62.7902 12.362C63.1975 12.362 63.5702 12.2927 63.9082 12.154C64.2549 12.0153 64.5582 11.816 64.8182 11.556C65.0782 11.296 65.2775 10.9883 65.4162 10.633C65.5635 10.2777 65.6372 9.88333 65.6372 9.45C65.6372 9.01667 65.5635 8.62233 65.4162 8.267C65.2775 7.91167 65.0782 7.604 64.8182 7.344C64.5669 7.084 64.2679 6.88467 63.9212 6.746C63.5745 6.60733 63.1975 6.538 62.7902 6.538C62.3829 6.538 62.0059 6.60733 61.6592 6.746C61.3212 6.88467 61.0222 7.084 60.7622 7.344C60.5022 7.604 60.2985 7.91167 60.1512 8.267C60.0125 8.62233 59.9432 9.01667 59.9432 9.45C59.9432 9.87467 60.0125 10.269 60.1512 10.633C60.2985 10.9883 60.4979 11.296 60.7492 11.556C61.0092 11.816 61.3125 12.0153 61.6592 12.154C62.0059 12.2927 62.3829 12.362 62.7902 12.362ZM69.3519 14V4.9H73.2909C74.1056 4.9 74.8076 5.03433 75.3969 5.303C75.9863 5.563 76.4413 5.94 76.7619 6.434C77.0826 6.928 77.2429 7.51733 77.2429 8.202C77.2429 8.878 77.0826 9.463 76.7619 9.957C76.4413 10.4423 75.9863 10.815 75.3969 11.075C74.8076 11.335 74.1056 11.465 73.2909 11.465H70.5219L71.4579 10.542V14H69.3519ZM75.1369 14L72.8619 10.698H75.1109L77.4119 14H75.1369ZM71.4579 10.776L70.5219 9.788H73.1739C73.8239 9.788 74.3093 9.64933 74.6299 9.372C74.9506 9.086 75.1109 8.696 75.1109 8.202C75.1109 7.69933 74.9506 7.30933 74.6299 7.032C74.3093 6.75467 73.8239 6.616 73.1739 6.616H70.5219L71.4579 5.615V10.776Z" fill="#505156"/>
<defs>
<linearGradient id="paint0_linear_24_579" x1="8.50007" y1="6.40125" x2="8.50007" y2="17.207" gradientUnits="userSpaceOnUse">
<stop offset="0.37" stop-color="#FFC513"/>
<stop offset="0.54" stop-color="#FFC011"/>
<stop offset="0.74" stop-color="#FFB20B"/>
<stop offset="0.95" stop-color="#FF9C01"/>
<stop offset="0.98" stop-color="#FF9900"/>
</linearGradient>
</defs>
</svg>
