<svg width="16" height="15" viewBox="0 0 16 15" fill="none" xmlns="http://www.w3.org/2000/svg">
<path fill-rule="evenodd" clip-rule="evenodd" d="M1.5918 2.21245L2.38095 6.75004H7.25013C7.66434 6.75004 8.00013 7.08582 8.00013 7.50004C8.00013 7.91425 7.66434 8.25004 7.25013 8.25004H2.38095L1.5918 12.7876L13.9295 7.50004L1.5918 2.21245ZM0.988869 7.50004L0.0637969 2.18087C-0.0109877 1.75086 0.128154 1.31135 0.436783 1.00272C0.824568 0.614942 1.40938 0.502312 1.91345 0.718342L15.3158 6.4622C15.7309 6.64013 16.0001 7.04835 16.0001 7.50004C16.0001 7.95172 15.7309 8.35995 15.3158 8.53788L1.91345 14.2817C1.40938 14.4978 0.824568 14.3851 0.436783 13.9974C0.128154 13.6887 -0.0109879 13.2492 0.0637969 12.8192L0.988869 7.50004Z" fill="#666668"/>
</svg>
