<svg width="16" height="15" viewBox="0 0 16 15" fill="none" xmlns="http://www.w3.org/2000/svg">
<path fill-rule="evenodd" clip-rule="evenodd" d="M1.59168 2.21245L2.38083 6.75004H7.25001C7.66422 6.75004 8.00001 7.08582 8.00001 7.50004C8.00001 7.91425 7.66422 8.25004 7.25001 8.25004H2.38083L1.59168 12.7876L13.9294 7.50004L1.59168 2.21245ZM0.988747 7.50004L0.0636748 2.18087C-0.0111098 1.75086 0.128032 1.31135 0.436661 1.00272C0.824446 0.614942 1.40926 0.502312 1.91333 0.718342L15.3157 6.4622C15.7308 6.64013 16 7.04835 16 7.50004C16 7.95172 15.7308 8.35995 15.3157 8.53788L1.91333 14.2817C1.40926 14.4978 0.824446 14.3851 0.436661 13.9974C0.128032 13.6887 -0.01111 13.2492 0.0636748 12.8192L0.988747 7.50004Z" fill="#3189F0"/>
</svg>
